{"title":"Cross.2011.DvDRip.XviD.Ac3.Feel-Free","uid":6413413,"size":1102164584,"categoryP":"video","categoryS":"movies","magnet":"?xt=urn:btih:edeba6e740d11817cb463308cad31d301952e890&amp;dn=Cross.2011.DvDRip.XviD.Ac3.Feel-Free&amp;tr=udp%3A%2F%2Ftracker.openbittorrent.com%3A80&amp;tr=udp%3A%2F%2Fopen.demonii.com%3A1337&amp;tr=udp%3A%2F%2Ftracker.coppersurfer.tk%3A6969&amp;tr=udp%3A%2F%2Fexodus.desync.com%3A6969","seeders":0,"leechers":0,"uploader":"hiest","files":-1,"time":1306078072,"description":"######## ######## ######## ##          ######## ########  ######## ######## \n##       ##       ##       ##          ##       ##     ## ##       ##       \n##       ##       ##       ##          ##       ##     ## ##       ##       \n######   ######   ######   ##          ######   ########  ######   ######   \n##       ##       ##       ##          ##       ##   ##   ##       ##       \n##       ##       ##       ##          ##       ##    ##  ##       ##       \n##       ######## ######## ########    ##       ##     ## ######## ######## \n\n Genre:Action | Fantasy \n Language:English\n IMDb:\n &lt;a href=&quot; http://www.imdb.com/title/tt1046245/&quot; rel=&quot;nofollow&quot; target=&quot;_NEW&quot;&gt; http://www.imdb.com/title/tt1046245/&lt;/a&gt;\n Source:DVD Thanks!\n\n Format : AVI\n Format/Info : Audio Video Interleave\n File size : 1.02 GiB\n Duration : 1h 44mn\n Overall bit rate : 1 398 Kbps\n\n Video\n ID : 0\n Format : MPEG-4 Visual\n Format profile : Advanced Simple@L5\n Format settings, BVOP : Yes\n Format settings, QPel : No\n Format settings, GMC : No warppoints\n Format settings, Matrix : Default (H.263)\n Codec ID : XVID\n Codec ID/Hint : XviD\n Duration : 1h 44mn\n Bit rate : 941 Kbps\n Width : 640 pixels\n Height : 352 pixels\n Display aspect ratio : 16:9\n Frame rate : 23.976 fps\n Color space : YUV\n Chroma subsampling : 4:2:0\n Bit depth : 8 bits\n Scan type : Progressive\n Bits/(Pixel*Frame) : 0.174\n Stream size : 706 MiB (67%)\n Writing library : XviD 1.2.1 (UTC 2008-12-04)\n\n Audio\n ID : 1\n Format : AC-3\n Format/Info : Audio Coding 3\n Mode extension : CM (complete main)\n Codec ID : 2000\n Duration : 1h 44mn\n Bit rate mode : Constant\n Bit rate : 448 Kbps\n Channel(s) : 6 channels\n Channel positions : Front: L C R, Side: L R, LFE\n Sampling rate : 48.0 KHz\n Bit depth : 16 bits\n Stream size : 336 MiB (32%)\n Alignment : Aligned on interleaves\n Interleave, duration : 42 ms (1.00 video frame)\n Interleave, preload duration : 512 ms\n\n\n Plot:\n Given incredible power by an ancient Celtic Cross. Callan continues to \n fight evil... Now, joined by a team of weapons experts, Callan battles \n an unstoppable empire in Los Angeles.\n\n\n\n\n\n\n\n ==================================\n &lt;a href=&quot; http://thepiratebay.se/user/hiest&quot; rel=&quot;nofollow&quot; target=&quot;_NEW&quot;&gt; http://thepiratebay.se/user/hiest&lt;/a&gt;\n ==================================\n\n\n\n\n\n\n\n Screen Shots:\n\n &lt;a href=&quot; http://www.pix2links.com/images/99434542404889533290.png&quot; rel=&quot;nofollow&quot; target=&quot;_NEW&quot;&gt; http://www.pix2links.com/images/99434542404889533290.png&lt;/a&gt;\n\n &lt;a href=&quot; http://www.pix2links.com/images/66107493136120097667.png&quot; rel=&quot;nofollow&quot; target=&quot;_NEW&quot;&gt; http://www.pix2links.com/images/66107493136120097667.png&lt;/a&gt;\n\n &lt;a href=&quot; http://www.pix2links.com/images/74486711160972028842.png&quot; rel=&quot;nofollow&quot; target=&quot;_NEW&quot;&gt; http://www.pix2links.com/images/74486711160972028842.png&lt;/a&gt;\n\n &lt;a href=&quot; http://www.pix2links.com/images/79061624340250745965.png&quot; rel=&quot;nofollow&quot; target=&quot;_NEW&quot;&gt; http://www.pix2links.com/images/79061624340250745965.png&lt;/a&gt;\n\n &lt;a href=&quot; http://www.pix2links.com/images/59943786190700590631.png&quot; rel=&quot;nofollow&quot; target=&quot;_NEW&quot;&gt; http://www.pix2links.com/images/59943786190700590631.png&lt;/a&gt;\n\n &lt;a href=&quot; http://www.pix2links.com/images/50336617469442450428.png&quot; rel=&quot;nofollow&quot; target=&quot;_NEW&quot;&gt; http://www.pix2links.com/images/50336617469442450428.png&lt;/a&gt;\n\n######## ######## ######## ##          ######## ########  ######## ######## \n##       ##       ##       ##          ##       ##     ## ##       ##       \n##       ##       ##       ##          ##       ##     ## ##       ##       \n######   ######   ######   ##          ######   ########  ######   ######   \n##       ##       ##       ##          ##       ##   ##   ##       ##       \n##       ##       ##       ##          ##       ##    ##  ##       ##       \n##       ######## ######## ########    ##       ##     ## ######## ######## ","torrent":{"xt":"urn:btih:edeba6e740d11817cb463308cad31d301952e890","amp;dn":"Cross.2011.DvDRip.XviD.Ac3.Feel-Free","amp;tr":["udp%3A%2F%2Ftracker.openbittorrent.com%3A80","udp%3A%2F%2Fopen.demonii.com%3A1337","udp%3A%2F%2Ftracker.coppersurfer.tk%3A6969","udp%3A%2F%2Fexodus.desync.com%3A6969"],"infoHash":"edeba6e740d11817cb463308cad31d301952e890","infoHashBuffer":{"type":"Buffer","data":[237,235,166,231,64,209,24,23,203,70,51,8,202,211,29,48,25,82,232,144]},"announce":[],"urlList":[]}}